# xmcd
#
# Track frame offsets:
#        150
#        19602
#        39695
#        59147
#
# Disc length: 1055 seconds
#
# Revision: 0
# Processed by: cddbd v1.5.1PL0 Copyright (c) Steve Scherf et al.
# Submitted via: ExactAudioCopy v0.95b2
#
DISCID=32041d04
DTITLE=易?哂胆徨 - THE BOOK OF LIFE
DYEAR=2001
DGENRE=JPop
TTITLE0=THE BOOK OF LIFE
TTITLE1=Shining
TTITLE2=THE BOOK OF LIFE(インストゥルメンタル)
TTITLE3=Shining(オリジナル，カラオケ)
EXTD=
EXTT0=
EXTT1=
EXTT2=
EXTT3=
PLAYORDER=
